<mxfile host="www.draw.io" modified="2019-12-10T07:14:20.817Z" agent="Mozilla/5.0 (Macintosh; Intel Mac OS X 10_14_2) AppleWebKit/605.1.15 (KHTML, like Gecko) Version/12.0.2 Safari/605.1.15" etag="0F0v2_3xiVGreHY4lyBj" version="12.3.9" type="github" pages="1">
  <diagram id="zlUfGWhfjDobWCDwf9dy" name="Page-1">
    <mxGraphModel dx="1126" dy="703" grid="1" gridSize="10" guides="1" tooltips="1" connect="1" arrows="1" fold="1" page="1" pageScale="1" pageWidth="3300" pageHeight="4681" math="0" shadow="0">
      <root>
        <mxCell id="0"/>
        <mxCell id="1" parent="0"/>
        <mxCell id="m0gbpI_5d1wNIK0egZ-h-5" style="edgeStyle=orthogonalEdgeStyle;rounded=0;orthogonalLoop=1;jettySize=auto;html=1;exitX=0.5;exitY=1;exitDx=0;exitDy=0;entryX=0.5;entryY=0;entryDx=0;entryDy=0;" edge="1" parent="1" source="m0gbpI_5d1wNIK0egZ-h-1" target="m0gbpI_5d1wNIK0egZ-h-3">
          <mxGeometry relative="1" as="geometry"/>
        </mxCell>
        <mxCell id="m0gbpI_5d1wNIK0egZ-h-1" value="DG &amp;nbsp;homepage" style="rounded=1;whiteSpace=wrap;html=1;" vertex="1" parent="1">
          <mxGeometry x="390" y="10" width="110" height="40" as="geometry"/>
        </mxCell>
        <mxCell id="m0gbpI_5d1wNIK0egZ-h-6" style="edgeStyle=orthogonalEdgeStyle;rounded=0;orthogonalLoop=1;jettySize=auto;html=1;exitX=0.5;exitY=1;exitDx=0;exitDy=0;entryX=0.5;entryY=0;entryDx=0;entryDy=0;" edge="1" parent="1" source="m0gbpI_5d1wNIK0egZ-h-3" target="m0gbpI_5d1wNIK0egZ-h-4">
          <mxGeometry relative="1" as="geometry"/>
        </mxCell>
        <mxCell id="m0gbpI_5d1wNIK0egZ-h-3" value="Topup 获取焦点" style="rounded=1;whiteSpace=wrap;html=1;" vertex="1" parent="1">
          <mxGeometry x="390" y="70" width="110" height="40" as="geometry"/>
        </mxCell>
        <mxCell id="m0gbpI_5d1wNIK0egZ-h-9" style="edgeStyle=orthogonalEdgeStyle;rounded=0;orthogonalLoop=1;jettySize=auto;html=1;exitX=1;exitY=0.5;exitDx=0;exitDy=0;entryX=0.5;entryY=0;entryDx=0;entryDy=0;" edge="1" parent="1" source="m0gbpI_5d1wNIK0egZ-h-4" target="m0gbpI_5d1wNIK0egZ-h-11">
          <mxGeometry relative="1" as="geometry">
            <mxPoint x="655" y="190" as="targetPoint"/>
          </mxGeometry>
        </mxCell>
        <mxCell id="m0gbpI_5d1wNIK0egZ-h-35" style="edgeStyle=orthogonalEdgeStyle;rounded=0;orthogonalLoop=1;jettySize=auto;html=1;entryX=0.5;entryY=0;entryDx=0;entryDy=0;" edge="1" parent="1" source="m0gbpI_5d1wNIK0egZ-h-4" target="m0gbpI_5d1wNIK0egZ-h-34">
          <mxGeometry relative="1" as="geometry"/>
        </mxCell>
        <mxCell id="m0gbpI_5d1wNIK0egZ-h-4" value="是否有历史记录&amp;nbsp;&lt;br&gt;suggestionList" style="rhombus;whiteSpace=wrap;html=1;" vertex="1" parent="1">
          <mxGeometry x="392.5" y="130" width="105" height="80" as="geometry"/>
        </mxCell>
        <mxCell id="m0gbpI_5d1wNIK0egZ-h-10" value="NO" style="text;html=1;strokeColor=none;fillColor=none;align=center;verticalAlign=middle;whiteSpace=wrap;rounded=0;" vertex="1" parent="1">
          <mxGeometry x="550" y="150" width="40" height="20" as="geometry"/>
        </mxCell>
        <mxCell id="m0gbpI_5d1wNIK0egZ-h-17" style="edgeStyle=orthogonalEdgeStyle;rounded=0;orthogonalLoop=1;jettySize=auto;html=1;" edge="1" parent="1" source="m0gbpI_5d1wNIK0egZ-h-11" target="m0gbpI_5d1wNIK0egZ-h-16">
          <mxGeometry relative="1" as="geometry"/>
        </mxCell>
        <mxCell id="m0gbpI_5d1wNIK0egZ-h-22" style="edgeStyle=orthogonalEdgeStyle;rounded=0;orthogonalLoop=1;jettySize=auto;html=1;exitX=0.5;exitY=1;exitDx=0;exitDy=0;entryX=0.5;entryY=0;entryDx=0;entryDy=0;" edge="1" parent="1" source="m0gbpI_5d1wNIK0egZ-h-11" target="m0gbpI_5d1wNIK0egZ-h-18">
          <mxGeometry relative="1" as="geometry"/>
        </mxCell>
        <mxCell id="m0gbpI_5d1wNIK0egZ-h-11" value="判断是否拥有通讯录权限&lt;span style=&quot;color: rgba(0 , 0 , 0 , 0) ; font-family: monospace ; font-size: 0px ; white-space: nowrap&quot;&gt;%3CmxGraphModel%3E%3Croot%3E%3CmxCell%20id%3D%220%22%2F%3E%3CmxCell%20id%3D%221%22%20parent%3D%220%22%2F%3E%3CmxCell%20id%3D%222%22%20value%3D%22%E6%98%AF%E5%90%A6%E6%9C%89%E5%8E%86%E5%8F%B2%E8%AE%B0%E5%BD%95%26amp%3Bnbsp%3B%26lt%3Bbr%26gt%3BsuggestionList%22%20style%3D%22rhombus%3BwhiteSpace%3Dwrap%3Bhtml%3D1%3B%22%20vertex%3D%221%22%20parent%3D%221%22%3E%3CmxGeometry%20x%3D%22392.5%22%20y%3D%22130%22%20width%3D%22105%22%20height%3D%2280%22%20as%3D%22geometry%22%2F%3E%3C%2FmxCell%3E%3C%2Froot%3E%3C%2FmxGraphModel%3E&lt;/span&gt;" style="rhombus;whiteSpace=wrap;html=1;" vertex="1" parent="1">
          <mxGeometry x="610" y="190" width="105" height="80" as="geometry"/>
        </mxCell>
        <mxCell id="m0gbpI_5d1wNIK0egZ-h-24" style="edgeStyle=orthogonalEdgeStyle;rounded=0;orthogonalLoop=1;jettySize=auto;html=1;exitX=0.5;exitY=1;exitDx=0;exitDy=0;entryX=0.5;entryY=0;entryDx=0;entryDy=0;" edge="1" parent="1" source="m0gbpI_5d1wNIK0egZ-h-13" target="m0gbpI_5d1wNIK0egZ-h-19">
          <mxGeometry relative="1" as="geometry"/>
        </mxCell>
        <mxCell id="m0gbpI_5d1wNIK0egZ-h-13" value="对已有通讯录号码数组进行一次过滤保存&amp;nbsp;matchContactList" style="rounded=1;whiteSpace=wrap;html=1;" vertex="1" parent="1">
          <mxGeometry x="591.5" y="370" width="142" height="50" as="geometry"/>
        </mxCell>
        <mxCell id="m0gbpI_5d1wNIK0egZ-h-15" value="YES" style="text;html=1;strokeColor=none;fillColor=none;align=center;verticalAlign=middle;whiteSpace=wrap;rounded=0;" vertex="1" parent="1">
          <mxGeometry x="670" y="270" width="40" height="20" as="geometry"/>
        </mxCell>
        <mxCell id="m0gbpI_5d1wNIK0egZ-h-16" value="不做提示处理" style="rounded=1;whiteSpace=wrap;html=1;" vertex="1" parent="1">
          <mxGeometry x="780" y="210" width="120" height="40" as="geometry"/>
        </mxCell>
        <mxCell id="m0gbpI_5d1wNIK0egZ-h-23" style="edgeStyle=orthogonalEdgeStyle;rounded=0;orthogonalLoop=1;jettySize=auto;html=1;exitX=0.5;exitY=1;exitDx=0;exitDy=0;entryX=0.5;entryY=0;entryDx=0;entryDy=0;" edge="1" parent="1" source="m0gbpI_5d1wNIK0egZ-h-18" target="m0gbpI_5d1wNIK0egZ-h-13">
          <mxGeometry relative="1" as="geometry"/>
        </mxCell>
        <mxCell id="m0gbpI_5d1wNIK0egZ-h-18" value="输入一个数字" style="rounded=1;whiteSpace=wrap;html=1;" vertex="1" parent="1">
          <mxGeometry x="603" y="300" width="118" height="40" as="geometry"/>
        </mxCell>
        <mxCell id="m0gbpI_5d1wNIK0egZ-h-25" style="edgeStyle=orthogonalEdgeStyle;rounded=0;orthogonalLoop=1;jettySize=auto;html=1;entryX=0.5;entryY=1;entryDx=0;entryDy=0;" edge="1" parent="1" source="m0gbpI_5d1wNIK0egZ-h-19" target="m0gbpI_5d1wNIK0egZ-h-32">
          <mxGeometry relative="1" as="geometry">
            <mxPoint x="721" y="320" as="targetPoint"/>
            <Array as="points">
              <mxPoint x="829" y="480"/>
            </Array>
          </mxGeometry>
        </mxCell>
        <mxCell id="m0gbpI_5d1wNIK0egZ-h-28" style="edgeStyle=orthogonalEdgeStyle;rounded=0;orthogonalLoop=1;jettySize=auto;html=1;exitX=0.5;exitY=1;exitDx=0;exitDy=0;entryX=0.5;entryY=0;entryDx=0;entryDy=0;" edge="1" parent="1" source="m0gbpI_5d1wNIK0egZ-h-19" target="m0gbpI_5d1wNIK0egZ-h-27">
          <mxGeometry relative="1" as="geometry"/>
        </mxCell>
        <mxCell id="m0gbpI_5d1wNIK0egZ-h-19" value="已输入数字个数&lt;br&gt;是否大于等于 4" style="rhombus;whiteSpace=wrap;html=1;" vertex="1" parent="1">
          <mxGeometry x="603" y="440" width="121" height="80" as="geometry"/>
        </mxCell>
        <mxCell id="m0gbpI_5d1wNIK0egZ-h-26" value="NO" style="text;html=1;strokeColor=none;fillColor=none;align=center;verticalAlign=middle;whiteSpace=wrap;rounded=0;" vertex="1" parent="1">
          <mxGeometry x="800" y="440" width="40" height="20" as="geometry"/>
        </mxCell>
        <mxCell id="m0gbpI_5d1wNIK0egZ-h-30" style="edgeStyle=orthogonalEdgeStyle;rounded=0;orthogonalLoop=1;jettySize=auto;html=1;entryX=0;entryY=0.5;entryDx=0;entryDy=0;" edge="1" parent="1" source="m0gbpI_5d1wNIK0egZ-h-27" target="m0gbpI_5d1wNIK0egZ-h-18">
          <mxGeometry relative="1" as="geometry">
            <Array as="points">
              <mxPoint x="550" y="580"/>
              <mxPoint x="550" y="320"/>
            </Array>
          </mxGeometry>
        </mxCell>
        <mxCell id="m0gbpI_5d1wNIK0egZ-h-27" value="对前面匹配的号码数组变色处理，最多展示 3 个" style="rounded=1;whiteSpace=wrap;html=1;" vertex="1" parent="1">
          <mxGeometry x="604" y="550" width="120" height="60" as="geometry"/>
        </mxCell>
        <mxCell id="m0gbpI_5d1wNIK0egZ-h-29" value="YES" style="text;html=1;strokeColor=none;fillColor=none;align=center;verticalAlign=middle;whiteSpace=wrap;rounded=0;" vertex="1" parent="1">
          <mxGeometry x="664" y="520" width="40" height="20" as="geometry"/>
        </mxCell>
        <mxCell id="m0gbpI_5d1wNIK0egZ-h-33" style="edgeStyle=orthogonalEdgeStyle;rounded=0;orthogonalLoop=1;jettySize=auto;html=1;exitX=0.5;exitY=0;exitDx=0;exitDy=0;entryX=1;entryY=0.5;entryDx=0;entryDy=0;" edge="1" parent="1" source="m0gbpI_5d1wNIK0egZ-h-32" target="m0gbpI_5d1wNIK0egZ-h-18">
          <mxGeometry relative="1" as="geometry"/>
        </mxCell>
        <mxCell id="m0gbpI_5d1wNIK0egZ-h-32" value="不做提示处理" style="rounded=1;whiteSpace=wrap;html=1;" vertex="1" parent="1">
          <mxGeometry x="770" y="375" width="118" height="40" as="geometry"/>
        </mxCell>
        <mxCell id="m0gbpI_5d1wNIK0egZ-h-50" style="edgeStyle=orthogonalEdgeStyle;rounded=0;orthogonalLoop=1;jettySize=auto;html=1;exitX=0.5;exitY=1;exitDx=0;exitDy=0;entryX=0.5;entryY=0;entryDx=0;entryDy=0;" edge="1" parent="1" source="m0gbpI_5d1wNIK0egZ-h-34" target="m0gbpI_5d1wNIK0egZ-h-40">
          <mxGeometry relative="1" as="geometry"/>
        </mxCell>
        <mxCell id="m0gbpI_5d1wNIK0egZ-h-34" value="展示最多3条历史记录" style="rounded=1;whiteSpace=wrap;html=1;" vertex="1" parent="1">
          <mxGeometry x="198" y="210" width="130" height="40" as="geometry"/>
        </mxCell>
        <mxCell id="m0gbpI_5d1wNIK0egZ-h-36" value="YES" style="text;html=1;strokeColor=none;fillColor=none;align=center;verticalAlign=middle;whiteSpace=wrap;rounded=0;" vertex="1" parent="1">
          <mxGeometry x="328" y="150" width="40" height="20" as="geometry"/>
        </mxCell>
        <mxCell id="m0gbpI_5d1wNIK0egZ-h-63" style="edgeStyle=orthogonalEdgeStyle;rounded=0;orthogonalLoop=1;jettySize=auto;html=1;exitX=0.5;exitY=1;exitDx=0;exitDy=0;" edge="1" parent="1" source="m0gbpI_5d1wNIK0egZ-h-40" target="m0gbpI_5d1wNIK0egZ-h-62">
          <mxGeometry relative="1" as="geometry"/>
        </mxCell>
        <mxCell id="m0gbpI_5d1wNIK0egZ-h-40" value="输入一个数字" style="rounded=1;whiteSpace=wrap;html=1;" vertex="1" parent="1">
          <mxGeometry x="203" y="280" width="118" height="40" as="geometry"/>
        </mxCell>
        <mxCell id="m0gbpI_5d1wNIK0egZ-h-57" style="edgeStyle=orthogonalEdgeStyle;rounded=0;orthogonalLoop=1;jettySize=auto;html=1;entryX=0.5;entryY=1;entryDx=0;entryDy=0;" edge="1" parent="1" source="m0gbpI_5d1wNIK0egZ-h-43" target="m0gbpI_5d1wNIK0egZ-h-56">
          <mxGeometry relative="1" as="geometry"/>
        </mxCell>
        <mxCell id="m0gbpI_5d1wNIK0egZ-h-59" style="edgeStyle=orthogonalEdgeStyle;rounded=0;orthogonalLoop=1;jettySize=auto;html=1;entryX=0.5;entryY=0;entryDx=0;entryDy=0;" edge="1" parent="1" source="m0gbpI_5d1wNIK0egZ-h-43" target="m0gbpI_5d1wNIK0egZ-h-55">
          <mxGeometry relative="1" as="geometry"/>
        </mxCell>
        <mxCell id="m0gbpI_5d1wNIK0egZ-h-43" value="已输入数字个数&lt;br&gt;是否小于 4" style="rhombus;whiteSpace=wrap;html=1;" vertex="1" parent="1">
          <mxGeometry x="201.5" y="525" width="121" height="80" as="geometry"/>
        </mxCell>
        <mxCell id="m0gbpI_5d1wNIK0egZ-h-44" value="NO" style="text;html=1;strokeColor=none;fillColor=none;align=center;verticalAlign=middle;whiteSpace=wrap;rounded=0;" vertex="1" parent="1">
          <mxGeometry x="261.5" y="605" width="40" height="20" as="geometry"/>
        </mxCell>
        <mxCell id="m0gbpI_5d1wNIK0egZ-h-51" value="YES" style="text;html=1;strokeColor=none;fillColor=none;align=center;verticalAlign=middle;whiteSpace=wrap;rounded=0;" vertex="1" parent="1">
          <mxGeometry x="100" y="450" width="40" height="20" as="geometry"/>
        </mxCell>
        <mxCell id="m0gbpI_5d1wNIK0egZ-h-54" style="edgeStyle=orthogonalEdgeStyle;rounded=0;orthogonalLoop=1;jettySize=auto;html=1;exitX=0.5;exitY=1;exitDx=0;exitDy=0;" edge="1" parent="1" source="m0gbpI_5d1wNIK0egZ-h-52" target="m0gbpI_5d1wNIK0egZ-h-43">
          <mxGeometry relative="1" as="geometry"/>
        </mxCell>
        <mxCell id="m0gbpI_5d1wNIK0egZ-h-52" value="对已有通讯录号码数组进行一次过滤保存 matchContactList" style="rounded=1;whiteSpace=wrap;html=1;" vertex="1" parent="1">
          <mxGeometry x="191" y="450" width="142" height="50" as="geometry"/>
        </mxCell>
        <mxCell id="m0gbpI_5d1wNIK0egZ-h-61" style="edgeStyle=orthogonalEdgeStyle;rounded=0;orthogonalLoop=1;jettySize=auto;html=1;exitX=0.5;exitY=1;exitDx=0;exitDy=0;entryX=0.5;entryY=0;entryDx=0;entryDy=0;" edge="1" parent="1" source="m0gbpI_5d1wNIK0egZ-h-55" target="m0gbpI_5d1wNIK0egZ-h-60">
          <mxGeometry relative="1" as="geometry"/>
        </mxCell>
        <mxCell id="m0gbpI_5d1wNIK0egZ-h-55" value="数据源切换到&lt;br&gt;matchContactList" style="rounded=1;whiteSpace=wrap;html=1;" vertex="1" parent="1">
          <mxGeometry x="203" y="630" width="117" height="45" as="geometry"/>
        </mxCell>
        <mxCell id="m0gbpI_5d1wNIK0egZ-h-58" style="edgeStyle=orthogonalEdgeStyle;rounded=0;orthogonalLoop=1;jettySize=auto;html=1;entryX=0;entryY=0.5;entryDx=0;entryDy=0;exitX=0.5;exitY=0;exitDx=0;exitDy=0;" edge="1" parent="1" source="m0gbpI_5d1wNIK0egZ-h-56" target="m0gbpI_5d1wNIK0egZ-h-34">
          <mxGeometry relative="1" as="geometry">
            <Array as="points">
              <mxPoint x="110" y="230"/>
            </Array>
          </mxGeometry>
        </mxCell>
        <mxCell id="m0gbpI_5d1wNIK0egZ-h-56" value="数据源是 suggestionList" style="rounded=1;whiteSpace=wrap;html=1;" vertex="1" parent="1">
          <mxGeometry x="50" y="352.5" width="120" height="35" as="geometry"/>
        </mxCell>
        <mxCell id="m0gbpI_5d1wNIK0egZ-h-60" value="对前面匹配的号码数组变色处理，最多展示 3 个" style="rounded=1;whiteSpace=wrap;html=1;" vertex="1" parent="1">
          <mxGeometry x="203" y="695" width="120" height="60" as="geometry"/>
        </mxCell>
        <mxCell id="m0gbpI_5d1wNIK0egZ-h-64" style="edgeStyle=orthogonalEdgeStyle;rounded=0;orthogonalLoop=1;jettySize=auto;html=1;exitX=0.5;exitY=1;exitDx=0;exitDy=0;entryX=0.5;entryY=0;entryDx=0;entryDy=0;" edge="1" parent="1" source="m0gbpI_5d1wNIK0egZ-h-62" target="m0gbpI_5d1wNIK0egZ-h-52">
          <mxGeometry relative="1" as="geometry"/>
        </mxCell>
        <mxCell id="m0gbpI_5d1wNIK0egZ-h-67" style="edgeStyle=orthogonalEdgeStyle;rounded=0;orthogonalLoop=1;jettySize=auto;html=1;exitX=1;exitY=0.5;exitDx=0;exitDy=0;entryX=0;entryY=0.5;entryDx=0;entryDy=0;" edge="1" parent="1" source="m0gbpI_5d1wNIK0egZ-h-62" target="m0gbpI_5d1wNIK0egZ-h-66">
          <mxGeometry relative="1" as="geometry"/>
        </mxCell>
        <mxCell id="m0gbpI_5d1wNIK0egZ-h-62" value="判断是否拥有通讯录权限&lt;span style=&quot;color: rgba(0 , 0 , 0 , 0) ; font-family: monospace ; font-size: 0px ; white-space: nowrap&quot;&gt;%3CmxGraphModel%3E%3Croot%3E%3CmxCell%20id%3D%220%22%2F%3E%3CmxCell%20id%3D%221%22%20parent%3D%220%22%2F%3E%3CmxCell%20id%3D%222%22%20value%3D%22%E6%98%AF%E5%90%A6%E6%9C%89%E5%8E%86%E5%8F%B2%E8%AE%B0%E5%BD%95%26amp%3Bnbsp%3B%26lt%3Bbr%26gt%3BsuggestionList%22%20style%3D%22rhombus%3BwhiteSpace%3Dwrap%3Bhtml%3D1%3B%22%20vertex%3D%221%22%20parent%3D%221%22%3E%3CmxGeometry%20x%3D%22392.5%22%20y%3D%22130%22%20width%3D%22105%22%20height%3D%2280%22%20as%3D%22geometry%22%2F%3E%3C%2FmxCell%3E%3C%2Froot%3E%3C%2FmxGraphModel%3E&lt;/span&gt;" style="rhombus;whiteSpace=wrap;html=1;" vertex="1" parent="1">
          <mxGeometry x="209" y="347.5" width="105" height="80" as="geometry"/>
        </mxCell>
        <mxCell id="m0gbpI_5d1wNIK0egZ-h-65" value="YES" style="text;html=1;strokeColor=none;fillColor=none;align=center;verticalAlign=middle;whiteSpace=wrap;rounded=0;" vertex="1" parent="1">
          <mxGeometry x="261.5" y="427.5" width="40" height="20" as="geometry"/>
        </mxCell>
        <mxCell id="m0gbpI_5d1wNIK0egZ-h-66" value="不做过滤处理" style="rounded=1;whiteSpace=wrap;html=1;" vertex="1" parent="1">
          <mxGeometry x="360" y="367.5" width="120" height="40" as="geometry"/>
        </mxCell>
        <mxCell id="m0gbpI_5d1wNIK0egZ-h-68" value="NO" style="text;html=1;strokeColor=none;fillColor=none;align=center;verticalAlign=middle;whiteSpace=wrap;rounded=0;" vertex="1" parent="1">
          <mxGeometry x="314" y="370" width="40" height="20" as="geometry"/>
        </mxCell>
      </root>
    </mxGraphModel>
  </diagram>
</mxfile>
